<svg xmlns="http://www.w3.org/2000/svg" width="297.838" height="248.251" viewBox="0 0 297.838 248.251">
  <g id="Group_3384" data-name="Group 3384" transform="translate(-960 -13951)">
    <g id="GoStack" transform="translate(959.29 13951)">
      <g id="Group_2343" data-name="Group 2343" transform="translate(0 158.354)">
        <g id="Group_2126" transform="translate(55.71 74.393)">
          <path id="Path_7249" data-name="Path 7249" d="M1.016,3.764V-11.324H6.3a6.94,6.94,0,0,1,4.166,1.052,3.6,3.6,0,0,1,1.42,3.083,3.409,3.409,0,0,1-.57,1.953A3.292,3.292,0,0,1,9.731-4,3.185,3.185,0,0,1,11.56-2.827a3.462,3.462,0,0,1,.668,2.155,3.982,3.982,0,0,1-1.389,3.3,6.251,6.251,0,0,1-3.959,1.14Zm3.109-6.57V1.267H6.788A2.57,2.57,0,0,0,8.5.743,1.8,1.8,0,0,0,9.119-.7a1.9,1.9,0,0,0-2.145-2.1Zm0-2.2h2.3q2.352-.041,2.352-1.876a1.733,1.733,0,0,0-.6-1.477A3.134,3.134,0,0,0,6.3-8.806H4.124ZM37.565-3.438A9.108,9.108,0,0,1,36.778.469,5.931,5.931,0,0,1,34.524,3.06a6.235,6.235,0,0,1-3.363.912,6.277,6.277,0,0,1-3.347-.9A5.989,5.989,0,0,1,25.534.495a8.848,8.848,0,0,1-.819-3.85V-4.1a9.06,9.06,0,0,1,.8-3.922,5.98,5.98,0,0,1,2.269-2.6,6.243,6.243,0,0,1,3.352-.907,6.242,6.242,0,0,1,3.352.907,5.98,5.98,0,0,1,2.269,2.6,9.035,9.035,0,0,1,.8,3.912Zm-3.15-.684a6.349,6.349,0,0,0-.85-3.606A2.769,2.769,0,0,0,31.14-8.961a2.77,2.77,0,0,0-2.415,1.218,6.277,6.277,0,0,0-.86,3.57v.736a6.429,6.429,0,0,0,.85,3.586,2.762,2.762,0,0,0,2.446,1.275,2.737,2.737,0,0,0,2.4-1.228,6.392,6.392,0,0,0,.85-3.58Zm28.415.684A9.108,9.108,0,0,1,62.042.469,5.931,5.931,0,0,1,59.788,3.06a6.235,6.235,0,0,1-3.363.912,6.277,6.277,0,0,1-3.347-.9A5.989,5.989,0,0,1,50.8.495a8.848,8.848,0,0,1-.819-3.85V-4.1a9.061,9.061,0,0,1,.8-3.922,5.98,5.98,0,0,1,2.269-2.6,6.242,6.242,0,0,1,3.352-.907,6.243,6.243,0,0,1,3.352.907,5.98,5.98,0,0,1,2.269,2.6,9.035,9.035,0,0,1,.8,3.912Zm-3.15-.684a6.349,6.349,0,0,0-.85-3.606A2.769,2.769,0,0,0,56.4-8.961,2.77,2.77,0,0,0,53.99-7.744a6.277,6.277,0,0,0-.86,3.57v.736A6.429,6.429,0,0,0,53.98.148a2.762,2.762,0,0,0,2.446,1.275A2.737,2.737,0,0,0,58.83.194a6.391,6.391,0,0,0,.85-3.58Zm26.5-4.684H81.555V3.764H78.446V-8.806h-4.56v-2.518h12.29Zm23.938,7.544a5.339,5.339,0,0,1-1.8,3.834,6.314,6.314,0,0,1-4.275,1.4,5.678,5.678,0,0,1-4.565-1.953,8.01,8.01,0,0,1-1.663-5.363v-.922A9.045,9.045,0,0,1,98.581-8.1a5.747,5.747,0,0,1,2.192-2.544,6.14,6.14,0,0,1,3.311-.886,6.151,6.151,0,0,1,4.207,1.4A5.738,5.738,0,0,1,110.136-6.2h-3.109a3.151,3.151,0,0,0-.813-2.119,3.012,3.012,0,0,0-2.13-.658,2.641,2.641,0,0,0-2.326,1.114,6.243,6.243,0,0,0-.793,3.456v1.14A6.682,6.682,0,0,0,101.706.3a2.592,2.592,0,0,0,2.337,1.13,3.069,3.069,0,0,0,2.15-.658,2.972,2.972,0,0,0,.813-2.036ZM131.286.655h-5.451L124.8,3.764h-3.306l5.617-15.088h2.881l5.648,15.088h-3.306Zm-4.611-2.518h3.772l-1.9-5.648Zm25.047-9.461L155.6-.381l3.855-10.943h4.083V3.764h-3.119V-.36l.311-7.119L156.654,3.764h-2.135L150.457-7.469l.311,7.109V3.764h-3.109V-11.324ZM179.97-1.552V3.764h-3.109V-11.324h5.886a6.81,6.81,0,0,1,2.99.622,4.582,4.582,0,0,1,1.984,1.767,4.926,4.926,0,0,1,.694,2.606,4.332,4.332,0,0,1-1.518,3.5,6.323,6.323,0,0,1-4.2,1.28Zm0-2.518h2.777a2.731,2.731,0,0,0,1.881-.58,2.111,2.111,0,0,0,.648-1.658,2.489,2.489,0,0,0-.653-1.793,2.439,2.439,0,0,0-1.8-.7h-2.85Z" transform="translate(-1.016 11.531)" fill="#fff"/>
        </g>
      </g>
      <g id="Group_2332" transform="translate(79.586)">
        <path id="Path_6401" data-name="Path 6401" d="M1618.765-284.541c-14.495-7.954-29.167-16.086-43.662-24.04a10.142,10.142,0,0,0-9.545,0c-14.495,7.955-28.99,16.086-43.485,24.04a9.026,9.026,0,0,0-4.772,7.6v48.434a8.784,8.784,0,0,0,4.949,7.778c4.066,2.121,7.954,4.419,12.021,6.54l23.687,13.081,7.247,4.066a6.271,6.271,0,0,0,1.59.707l.707.353h.177a10.186,10.186,0,0,0,7.247-.707c14.5-7.955,28.99-16.086,43.485-24.04a8.9,8.9,0,0,0,4.949-7.778V-276.94A9.085,9.085,0,0,0,1618.765-284.541Zm-62.753,54.268L1544.7-219.844a.651.651,0,0,1-.531.177h-.177a.339.339,0,0,1-.177-.53l4.066-14.849a4.933,4.933,0,0,1,3.182-3.535l.176-.177a1.552,1.552,0,0,1,1.238.177c.707.53,1.237.884,1.945,1.414a13.161,13.161,0,0,0,2.121,1.237,1.2,1.2,0,0,1,.707,1.061l.353.354A4.993,4.993,0,0,1,1556.012-230.274Zm11.667-10.253c-.177,0-.177.177-.353.177l-3.535-.354a1.3,1.3,0,0,0-1.061.354l-3.889,3.535a.65.65,0,0,1-.531.177,26.37,26.37,0,0,1-5.3-3.182c-.177-.177-.354-.354-.177-.53l1.237-5.126a1.171,1.171,0,0,0-.176-1.061l-1.945-3.005c0-.177-.177-.177-.177-.354,0-.354.177-.707.177-1.237v-.177h0s.177-.177.177,0c1.591,1.061,8.308,5.126,8.308,5.126s6.717,4.066,8.308,5.126a.65.65,0,0,1,.177.53Zm23.687-32.348.177.177,3.535.53h.177c.707.177,1.591,1.061.353,2.652l-14.848,20.151a1.063,1.063,0,0,1-.707.177l-6.01-3.712a1.906,1.906,0,0,0-1.944,0l-1.944,1.237a1.915,1.915,0,0,1-1.945,0,2.754,2.754,0,0,0-3.712.354,7.438,7.438,0,0,1-8.662.354l-7.955-4.95-.353-.354h0a2.3,2.3,0,0,1-.176-3.359h0a2.613,2.613,0,0,1,3.535-.884l1.591.884h.177c.177.177.353,0,.353-.177l.353-2.121c0-.177,0-.354-.177-.354l-.353-.177a1.638,1.638,0,0,1-.531-2.121,1.421,1.421,0,0,1,1.944-.53l10.783,6.54h.177c.177.177.354,0,.53-.177l11.136-15.2a1.963,1.963,0,0,1,1.945-.707l2.828.354,1.944.354c0,.177.177,0,.177,0,.176-.177.176-.177,0-.177a1.676,1.676,0,0,1-.353-2.3l3.712-5.126a2.049,2.049,0,0,1,1.768-.707l7.07,1.061a.919.919,0,0,1,.708.354l.176.177a.873.873,0,0,1-.176,1.237s-3.536,4.773-4.773,6.54v.177C1591.012-273.228,1591.012-273.052,1591.366-272.875Z" transform="translate(-1500.861 314.592)" fill="#04d361"/>
        <g id="Group_2334" data-name="Group 2334">
          <path id="Path_6402" data-name="Path 6402" d="M1558.187-301.01c5.48-4.243,8.485-5.126,13.081-5.126a9,9,0,0,1,3.889.884c4.067,2.3,5.833,9.192,4.6,19.091l5.834,3.182c1.944-14.141-.707-23.864-7.6-27.753a14,14,0,0,0-7.07-1.768c-6.187,0-11.136,1.768-18.914,7.955C1554.3-303.308,1556.243-302.071,1558.187-301.01Z" transform="translate(-1474.223 312.5)" fill="#fff"/>
          <path id="Path_6403" data-name="Path 6403" d="M1524.439-257.335c-8.131-3.889-10.076-7.071-10.076-11.49,0-4.6,4.6-9.015,12.9-12.9V-288.8C1514.894-283.674,1508-276.6,1508-269c0,7.778,4.066,13.258,16.439,18.384Z" transform="translate(-1508 330.694)" fill="#fff"/>
          <path id="Path_6404" data-name="Path 6404" d="M1529.51-289.143c-1.061-9.722.707-13.788,4.949-16.086a6.306,6.306,0,0,1,3.889-.884c4.6,0,9.9,2.475,15.379,6.717l5.833-3.182c-7.6-6.187-15.2-9.722-21.389-9.722a14.008,14.008,0,0,0-7.071,1.768c-6.894,4.066-9.722,10.783-7.6,24.924C1525.622-287.022,1527.566-288.083,1529.51-289.143Z" transform="translate(-1496.631 312.654)" fill="#fff"/>
          <path id="Path_6405" data-name="Path 6405" d="M1578.429-287.8v6.717c8.131,3.889,10.076,7.071,10.076,11.49,0,4.6-4.6,9.015-12.9,12.9v7.071c12.374-5.126,19.268-12.2,19.268-19.8C1594.868-277.194,1590.979-282.674,1578.429-287.8Z" transform="translate(-1456.106 331.462)" fill="#fff"/>
          <path id="Path_6406" data-name="Path 6406" d="M1551.347-241.193c-5.481,4.242-8.486,5.126-13.081,5.126a9,9,0,0,1-3.889-.884c-4.242-2.3-5.834-9.369-4.6-19.091-1.944-1.061-4.066-2.121-6.01-3.359-1.945,13.965.707,23.687,7.424,27.576a14.009,14.009,0,0,0,7.071,1.768c6.187.177,11.313-1.591,19.091-7.778Z" transform="translate(-1496.372 353.264)" fill="#fff"/>
          <path id="Path_6407" data-name="Path 6407" d="M1581.1-254.341c1.061,9.722-.884,13.788-4.95,16.086a6.3,6.3,0,0,1-3.889.884c-4.6,0-9.9-2.475-15.555-6.717-1.944,1.061-3.889,2.121-6.01,3.182,7.778,6.364,15.2,9.9,21.565,9.9a14.011,14.011,0,0,0,7.071-1.768c6.894-4.066,9.9-10.783,7.6-24.924C1585.17-256.639,1583.049-255.579,1581.1-254.341Z" transform="translate(-1475.221 354.569)" fill="#fff"/>
        </g>
      </g>
    </g>
    <g id="Group_3383" data-name="Group 3383" transform="translate(16.984 -123.028)">
      <path id="Path_10185" data-name="Path 10185" d="M6.995,14.7A5.962,5.962,0,0,0,4.671,9.641Q2.347,7.878-3.695,5.923a59.3,59.3,0,0,1-9.566-3.854q-9.605-5.19-9.605-13.982a13.617,13.617,0,0,1,2.576-8.153,16.8,16.8,0,0,1,7.4-5.6A27.843,27.843,0,0,1-2.068-27.676,25.343,25.343,0,0,1,8.7-25.488a17.144,17.144,0,0,1,7.339,6.178,16.165,16.165,0,0,1,2.614,9.063H7.033a7.6,7.6,0,0,0-2.44-6.023,10.03,10.03,0,0,0-6.855-2.15,10.716,10.716,0,0,0-6.623,1.8,5.681,5.681,0,0,0-2.363,4.744A5.441,5.441,0,0,0-8.478-7.265,31.286,31.286,0,0,0-.325-3.779Q9.59-.8,14.121,3.618a14.732,14.732,0,0,1,4.531,11A13.571,13.571,0,0,1,13.114,26.1Q7.576,30.265-1.8,30.265a28.794,28.794,0,0,1-11.852-2.382A18.754,18.754,0,0,1-21.8,21.357a16.713,16.713,0,0,1-2.808-9.605h11.658q0,9.334,11.154,9.334A10.851,10.851,0,0,0,4.671,19.4,5.481,5.481,0,0,0,6.995,14.7ZM39.18-22.719v10.3h7.165v8.211H39.18V16.709a4.994,4.994,0,0,0,.891,3.331q.891,1.007,3.408,1.007a17.85,17.85,0,0,0,3.292-.271v8.482a23.043,23.043,0,0,1-6.778,1.007q-11.774,0-12.006-11.89V-4.205H21.867v-8.211h6.119v-10.3ZM76.865,29.49a12.43,12.43,0,0,1-1.123-3.757,13.543,13.543,0,0,1-10.573,4.531A14.879,14.879,0,0,1,54.963,26.7a11.46,11.46,0,0,1-4.047-8.985q0-6.662,4.938-10.225t14.272-3.6h5.151v-2.4A6.906,6.906,0,0,0,73.786-3.16,5.866,5.866,0,0,0,69.08-4.9a6.669,6.669,0,0,0-4.435,1.356A4.605,4.605,0,0,0,63.038.171H51.845a11.244,11.244,0,0,1,2.246-6.739,14.849,14.849,0,0,1,6.352-4.861,23.149,23.149,0,0,1,9.218-1.762q7.746,0,12.3,3.892T86.509,1.643V19.808q.039,5.965,1.665,9.024v.658Zm-9.257-7.785a9.64,9.64,0,0,0,4.57-1.1,7.25,7.25,0,0,0,3.1-2.963v-7.2H71.094q-8.4,0-8.947,5.81l-.039.658A4.481,4.481,0,0,0,63.58,20.35,5.717,5.717,0,0,0,67.608,21.705Zm44.927-.465a7.341,7.341,0,0,0,5.035-1.7A5.971,5.971,0,0,0,119.585,15h10.5a14.358,14.358,0,0,1-2.324,7.8,15.334,15.334,0,0,1-6.255,5.5,19.576,19.576,0,0,1-8.772,1.956q-8.985,0-14.175-5.713T93.364,8.769V8.033q0-9.683,5.151-15.453t14.137-5.771q7.862,0,12.607,4.473t4.822,11.91h-10.5a7.628,7.628,0,0,0-2.014-5.287,7.5,7.5,0,0,0-11.019.813q-1.995,2.847-1.995,9.237V9.118q0,6.468,1.975,9.3A6.83,6.83,0,0,0,112.536,21.241Zm39.157-8.559-4.028,4.028V29.49H136.471V-30h11.193V2.96L149.833.171l10.728-12.587H174L158.857,5.051l16.46,24.439H162.459Z" transform="translate(1065.536 14258.154)" fill="#04d361"/>
      <path id="Path_10186" data-name="Path 10186" d="M-27.972,21.212a20.168,20.168,0,0,1-8.869,5.829,37.143,37.143,0,0,1-12.7,2.072,25.165,25.165,0,0,1-12.839-3.2,21.312,21.312,0,0,1-8.521-9.276A32.647,32.647,0,0,1-73.984,2.35V-1.484a34.671,34.671,0,0,1,2.847-14.621,21.058,21.058,0,0,1,8.211-9.45,23.651,23.651,0,0,1,12.568-3.273q10.031,0,15.686,4.783t6.7,13.924H-39.282q-.775-4.841-3.428-7.088a10.947,10.947,0,0,0-7.3-2.246A10.3,10.3,0,0,0-59.034-15q-3.1,4.454-3.137,13.246v3.6q0,8.869,3.37,13.4t9.876,4.531q6.545,0,9.334-2.789V7.269H-50.165V-1.291h22.193ZM-21.04,7a24.853,24.853,0,0,1,2.4-11.116,17.579,17.579,0,0,1,6.913-7.552A20.17,20.17,0,0,1-1.248-14.343q8.482,0,13.846,5.19t5.984,14.1l.077,2.866q0,9.644-5.384,15.473T-1.171,29.113q-9.063,0-14.466-5.81t-5.4-15.8Zm11.193.813q0,5.965,2.246,9.121a7.414,7.414,0,0,0,6.429,3.157,7.431,7.431,0,0,0,6.352-3.118Q7.466,13.853,7.466,7q0-5.848-2.285-9.063A7.432,7.432,0,0,0-1.248-5.28,7.31,7.31,0,0,0-7.6-2.085Q-9.847,1.111-9.847,7.811Z" transform="translate(1017 14259.307)" fill="#fff"/>
    </g>
  </g>
</svg>
